<svg width="76" height="33" viewBox="0 0 76 33" fill="none" xmlns="http://www.w3.org/2000/svg">
<g clip-path="url(#clip0_4_22)">
<path fill-rule="evenodd" clip-rule="evenodd" d="M72.6481 17.8872C73.3074 17.8908 73.953 17.6984 74.5033 17.3344C75.0535 16.9704 75.4836 16.4511 75.7392 15.8421C75.9949 15.2331 76.0646 14.5619 75.9395 13.9133C75.8144 13.2646 75.5001 12.6678 75.0365 12.1981C74.5728 11.7284 73.9805 11.407 73.3346 11.2746C72.6886 11.1422 72.018 11.2047 71.4074 11.4541C70.7969 11.7036 70.2739 12.1289 69.9046 12.6761C69.5353 13.2234 69.3363 13.8681 69.3327 14.5288C69.3407 15.4107 69.6914 16.2548 70.3104 16.8818C70.9295 17.5089 71.768 17.8695 72.6481 17.8872Z" fill="#8D333E"/>
<path d="M18.4349 17.8875V7.92123L13.1164 15.9159H9.80033L4.55378 7.92123V17.8875H0.583527V0H5.06404L11.5496 11.2064L18.3629 0H22.3332L22.4064 17.8875H18.4349Z" fill="#1F1F1F"/>
<path d="M26.3407 0H30.3122V11.9366L40.2591 0H44.1574V17.8875H40.2591V5.94961L30.3122 17.8875H26.3407V0Z" fill="#1F1F1F"/>
<path d="M2.11314 28.7655C2.08246 29.514 1.93493 30.253 1.67593 30.9558H3.7162V26.6117H2.25887L2.11314 28.7655ZM5.35571 30.9558V32.927C5.21804 32.9865 5.068 33.0116 4.91851 33C4.75691 33.0211 4.59267 32.9957 4.44486 32.927V31.7589H0.947267V32.927C0.809604 32.9865 0.65955 33.0116 0.510067 33C0.336657 33.0173 0.161659 32.9922 0 32.927V30.9558H0.437199C0.80154 30.6637 1.02014 30.0797 1.093 28.6925L1.3116 25.8086H4.6999V30.9558H5.35571Z" fill="#7A7D6B"/>
<path d="M10.5292 25.8086C10.6238 25.935 10.675 26.0887 10.675 26.2467C10.675 26.4047 10.6238 26.5584 10.5292 26.6847H8.19749V28.3274H10.1649C10.182 28.4504 10.2063 28.5724 10.2378 28.6925C10.2378 28.9115 10.1649 29.0575 10.1649 29.2036H8.19749V30.9558H10.675C10.7064 31.0759 10.7307 31.1978 10.7478 31.3208C10.7478 31.4668 10.675 31.6128 10.675 31.7588H7.10443V25.8086H10.5292Z" fill="#7A7D6B"/>
<path d="M14.6462 30.9558C14.7637 30.9666 14.8822 30.9514 14.9932 30.9112C15.1042 30.871 15.205 30.8068 15.2885 30.7232C15.372 30.6396 15.436 30.5386 15.4761 30.4273C15.5163 30.3161 15.5314 30.1974 15.5206 30.0797C15.5206 29.4226 15.2292 29.1305 14.6462 29.1305H13.5532V30.9558H14.6462ZM14.5733 28.3274C14.6857 28.3304 14.7975 28.3092 14.901 28.2652C15.0045 28.2212 15.0974 28.1555 15.1734 28.0724C15.2494 27.9894 15.3067 27.8909 15.3414 27.7838C15.3762 27.6767 15.3876 27.5633 15.3749 27.4513C15.3839 27.3419 15.3697 27.2318 15.3332 27.1282C15.2966 27.0247 15.2385 26.9301 15.1627 26.8507C15.087 26.7714 14.9953 26.709 14.8937 26.6678C14.7921 26.6266 14.6829 26.6075 14.5733 26.6117H13.5532V28.3274L14.5733 28.3274ZM14.7919 25.8086C15.0081 25.7991 15.2239 25.8353 15.4252 25.915C15.6264 25.9947 15.8086 26.116 15.9599 26.271C16.1112 26.426 16.2282 26.6113 16.3031 26.8147C16.3781 27.018 16.4094 27.235 16.395 27.4513C16.4067 27.6902 16.3597 27.9283 16.258 28.1447C16.1564 28.3611 16.0032 28.5493 15.8121 28.6925C16.061 28.8068 16.2702 28.9929 16.413 29.227C16.5558 29.4611 16.6256 29.7325 16.6136 30.0066C16.629 30.2407 16.5943 30.4754 16.5118 30.695C16.4294 30.9145 16.3011 31.1139 16.1355 31.2798C15.9699 31.4457 15.7709 31.5742 15.5518 31.6569C15.3327 31.7395 15.0984 31.7743 14.8648 31.7589H12.4602V25.8086H14.7919Z" fill="#7A7D6B"/>
<path d="M21.8236 25.8086C21.9207 26.0926 21.9207 26.4008 21.8236 26.6847H19.4918V28.3274H21.4592C21.4764 28.4504 21.5007 28.5724 21.5321 28.6925C21.5321 28.9115 21.4592 29.0575 21.4592 29.2036H19.4918V30.9558H21.8965C21.9876 31.0557 22.0394 31.1854 22.0422 31.3208C22.027 31.4759 21.9772 31.6256 21.8965 31.7588H18.4353V25.8086H21.8236Z" fill="#7A7D6B"/>
<path d="M23.3538 31.7589C23.3009 31.6447 23.276 31.5196 23.2809 31.3938C23.2694 31.244 23.2944 31.0937 23.3538 30.9558H23.7181C23.9367 30.8828 24.4468 30.5177 24.5925 28.4735L24.8111 25.8086H28.0537V31.6859C27.8905 31.7451 27.7168 31.77 27.5436 31.7589C27.3821 31.7749 27.2192 31.7498 27.07 31.6859V26.6117H25.6855L25.6127 28.4735C25.3212 31.4668 24.3739 31.8319 23.8639 31.8319C23.6453 31.8319 23.4995 31.7589 23.3538 31.7589Z" fill="#7A7D6B"/>
<path d="M32.3528 26.6117C31.5513 26.6117 31.0412 27.0498 31.0412 28.7655C31.0412 30.5177 31.5513 30.9558 32.3528 30.9558C33.1543 30.9558 33.5916 30.5177 33.5916 28.7655C33.5916 27.0498 33.1543 26.6117 32.3528 26.6117ZM32.3528 25.7356C33.8102 25.7356 34.721 26.6847 34.721 28.7655C34.721 30.9557 33.8102 31.8318 32.3528 31.8318C30.8226 31.8318 29.9482 30.9557 29.9482 28.7655C29.9482 26.6847 30.8955 25.7356 32.3528 25.7356Z" fill="#7A7D6B"/>
<path d="M40.7689 31.6859C40.4358 31.7832 40.0819 31.7832 39.7488 31.6859V26.7577H37.6357V31.6859C37.4701 31.7349 37.2983 31.7594 37.1256 31.7588C36.9524 31.7699 36.7787 31.7451 36.6155 31.6859V25.8086H40.7689V31.6859Z" fill="#7A7D6B"/>
<path d="M47.7277 25.8087C47.9725 25.8059 48.2169 25.8304 48.4564 25.8817V31.6859C48.2908 31.7349 48.119 31.7594 47.9463 31.7589C47.7495 31.7632 47.5531 31.7386 47.3633 31.6859V29.8607C47.3633 28.9846 47.3634 27.8164 47.4362 27.1593H47.3633C47.1074 27.8555 46.8155 28.5378 46.4889 29.2036L45.906 30.4447C45.8147 30.4884 45.7156 30.5133 45.6145 30.5177C45.5117 30.5297 45.4081 30.5037 45.323 30.4447C45.1044 30.0797 44.9587 29.6417 44.7401 29.2766C44.3741 28.5945 44.0575 27.8869 43.7929 27.1593H43.72C43.8502 27.9799 43.899 28.8114 43.8657 29.6417V31.6859C43.5326 31.7832 43.1787 31.7832 42.8456 31.6859V25.8817C43.2774 25.7843 43.7254 25.7843 44.1572 25.8817L44.8858 27.3784C45.1773 27.9624 45.4688 28.6195 45.6145 28.9846H45.6874C45.7638 28.7097 45.8612 28.4412 45.9789 28.1815C46.3432 27.3784 46.7075 26.6848 47.0719 25.8817C47.2905 25.8817 47.5819 25.8087 47.7277 25.8087L47.7277 25.8087Z" fill="#7A7D6B"/>
<path d="M53.9578 25.8086C54.055 26.0926 54.055 26.4008 53.9578 26.6847H51.6261V28.3274H53.5206C53.5734 28.4416 53.5984 28.5668 53.5934 28.6925C53.6106 28.8662 53.5856 29.0416 53.5206 29.2036H51.6261V30.9558H54.0307C54.0968 31.0652 54.1226 31.1943 54.1035 31.3208C54.1151 31.4706 54.0901 31.6209 54.0307 31.7588H50.5331V25.8086H53.9578Z" fill="#7A7D6B"/>
<path d="M59.0949 25.8817C59.2605 25.8327 59.4323 25.8081 59.605 25.8086C59.8018 25.8043 59.9982 25.829 60.1879 25.8817V31.6859C59.9982 31.7386 59.8018 31.7631 59.605 31.7588C59.4317 31.7699 59.2581 31.7451 59.0949 31.6859V29.1305H56.9453V31.6859C56.7798 31.7349 56.6079 31.7594 56.4353 31.7588C56.238 31.7735 56.0399 31.7487 55.8523 31.6859V25.8817C56.042 25.829 56.2384 25.8043 56.4353 25.8086C56.6079 25.8081 56.7798 25.8327 56.9453 25.8817V28.2544H59.0949V25.8817Z" fill="#7A7D6B"/>
<path d="M65.9079 25.8086C65.9525 25.9505 65.9771 26.098 65.9808 26.2467C65.9814 26.4197 65.9568 26.5918 65.9079 26.7577H64.4142V31.6859C64.0811 31.7832 63.7271 31.7832 63.394 31.6859V26.7577H61.8638C61.8192 26.6159 61.7947 26.4684 61.791 26.3197C61.7904 26.1467 61.8149 25.9745 61.8638 25.8086H65.9079Z" fill="#7A7D6B"/>
<path d="M63.9765 17.8875H48.1649V0H52.1364V13.8721H60.0422V0H63.9765V17.8875Z" fill="#1F1F1F"/>
<path d="M65.9808 13.8717H62.0096V19.8219H65.9808V13.8717Z" fill="#1F1F1F"/>
</g>
<defs>
<clipPath id="clip0_4_22">
<rect width="76" height="33" fill="white"/>
</clipPath>
</defs>
</svg>
